<svg width="150" height="85" viewBox="0 0 150 85" fill="none" xmlns="http://www.w3.org/2000/svg">
<path fill-rule="evenodd" clip-rule="evenodd" d="M46.0987 14.7096C50.4245 16.0614 54.8903 20.7112 57.0581 26.1204C58.3702 29.3946 58.8977 32.7829 58.6668 36.4527C58.5412 38.4461 58.0226 41.208 57.7627 41.2679C57.6605 41.2915 57.2287 40.8226 56.8032 40.2259C54.734 37.3244 50.5192 35.0019 44.5381 33.4676C39.2768 32.1176 36.1748 29.6772 34.253 25.3756L33.4221 23.5157L31.5283 23.656C28.9559 23.8468 24.2249 25.1252 21.5106 26.3631C19.77 27.157 17.6575 28.3901 16.9246 28.9965C15.8003 29.6238 14.2124 31.0368 13.0801 32.1287C12.7954 32.3675 12.4976 32.6699 12.1387 33.0673C11.8604 33.3754 11.5453 33.7405 11.171 34.1774C7.25509 38.7477 4.6431 44.995 4.04309 51.2261C3.21905 59.7826 5.86863 67.9533 11.5701 74.4372C13.4999 76.6319 15.2995 78.1169 18.3131 80.0019C22.1852 82.4239 26.1824 83.8592 30.6864 84.4446C33.1947 84.7708 32.5051 84.8683 29.5911 84.5996C24.2689 84.1087 19.8909 82.6244 15.2053 79.7221C7.7712 75.1175 3.11108 68.6123 1.09886 60.0314C-0.0614427 55.0831 -0.0891912 50.679 1.00952 45.9208C1.94659 41.8634 3.13701 39.0313 5.41364 35.4442C8.27494 30.9356 12.3163 27.2101 17.404 24.3911C18.9318 23.5444 20.7405 22.4143 21.4233 21.8797C23.8624 19.9699 25.7178 17.2579 26.446 14.5388C26.8319 13.0974 27.162 10.0742 26.948 9.94024C26.8773 9.89616 26.6999 10.328 26.5534 10.8999C26.1198 12.596 25.1352 14.5365 23.9575 16.0168C22.8393 17.4221 21.47 18.6211 20.795 18.7859C19.8368 19.0198 18.7224 14.7725 19.217 12.7722C19.6476 11.0297 20.1307 10.1353 21.5174 8.51355C23.3734 6.34274 24.6637 4.10702 25.051 2.39065C25.2343 1.57816 25.3494 0.762693 25.307 0.578503C24.9481 -0.977914 27.562 1.19738 29.2472 3.8576C30.2582 5.45354 31.1838 8.5141 31.2573 10.5033C31.286 11.2833 31.1121 12.8012 30.871 13.8762C30.1705 16.998 28.5109 18.9419 25.5836 20.0681C24.4956 20.487 23.6692 21.1569 23.7593 21.5476C23.794 21.698 24.3623 21.5957 25.4554 21.242C28.6463 20.2093 33.7437 19.9526 37.4994 20.6351C40.9256 21.2579 43.1443 22.1498 46.5561 24.2761C48.2765 25.3483 49.6737 26.1809 49.6611 26.1264C49.6117 25.9121 48.2418 24.3654 47.2505 23.4045C44.2108 20.4583 40.6549 18.4019 36.7644 17.3414L34.6326 16.7602L35.3276 16.2616C38.0586 14.3021 42.6692 13.6377 46.0987 14.7096Z" fill="url(#paint0_radial_49_57)"/>
<path fill-rule="evenodd" clip-rule="evenodd" d="M149.567 46.6203C150.061 48.5094 149.784 50.6517 148.888 51.8776C148.178 52.8496 146.803 53.5892 145.677 53.6054L145.391 53.6095L145.849 53.0283C146.686 51.9675 147.234 50.7051 147.466 49.3058C147.542 48.8495 147.603 48.1599 147.573 48.0923C147.566 48.0751 147.355 48.5778 147.106 49.2094C146.61 50.4619 146.19 51.1442 145.391 51.9945C144.515 52.9266 143.091 53.873 142.026 54.2305C141.661 54.3529 141.487 54.4386 141.508 54.486C141.561 54.6092 141.917 54.6251 142.294 54.5211C143.307 54.2414 144.141 54.4344 144.952 55.1358C145.231 55.3774 145.58 55.7517 145.728 55.9675C146.104 56.518 146.465 57.5269 146.51 58.1583C146.586 59.2106 146.316 60.3174 146.102 59.8266C146.077 59.7685 145.883 59.5718 145.672 59.3894C145.226 59.0042 144.433 58.659 143.501 58.4439C142.804 58.2833 142.496 58.1386 142.032 57.755C141.501 57.3146 140.955 55.9484 141.259 55.8206C141.474 55.7305 142.082 55.7807 142.663 55.9365C143.275 56.1007 143.927 56.4273 144.382 56.7978C144.535 56.9227 144.669 57.0037 144.679 56.9777C144.71 56.899 144.019 56.1503 143.628 55.8389C142.89 55.2515 141.85 54.8905 140.812 54.862C140.522 54.8539 139.809 54.9099 139.229 54.9861C137.694 55.1881 136.222 55.1042 134.845 54.7377C137.747 55.0927 139.513 54.4225 140.621 54.0029C141.729 53.5834 142.026 53.2695 142.757 52.8084L143.719 52.0308L143.572 51.3642C143.233 49.8225 143.582 48.5471 144.731 47.1353C146.036 45.5304 146.709 44.0651 146.688 42.8712C146.684 42.6257 146.707 42.4133 146.739 42.3993C146.821 42.3637 147.511 43.0044 147.942 43.5164C148.735 44.459 149.268 45.4769 149.567 46.6203Z" fill="url(#paint1_radial_49_57)"/>
<path fill-rule="evenodd" clip-rule="evenodd" d="M58.3167 49.556C56.0419 50.6795 55.3352 52.593 56.7629 53.7647C58.1704 54.9199 60.306 53.53 59.855 51.7524C59.5879 50.6995 59.795 50.2789 60.7236 49.9872C62.4648 49.4407 63.7645 50.7454 63.5522 52.8253C63.3933 54.3811 63.0549 54.6582 60.5469 55.2846C58.9931 55.6728 57.1859 56.4693 56.5315 57.0551C55.0455 58.3845 54.9949 60.9732 56.4304 62.2573C57.7153 63.4072 61.3779 63.5366 63.1613 62.4955C64.1691 61.9073 64.4748 61.9073 64.6902 62.4955C64.8555 62.9461 66.0774 63.2308 67.8489 63.2308C70.8269 63.2308 72.4687 62.2855 70.0743 61.949C68.8275 61.7743 68.7157 61.432 68.5765 57.3486C68.3629 51.0865 68.0982 50.3389 65.7508 49.369C63.0442 48.2508 60.8467 48.3061 58.3167 49.556ZM63.5557 58.6721C63.3933 60.8985 63.2101 61.172 61.8859 61.172C60.7236 61.172 60.3595 60.835 60.2179 59.6286C60.024 57.9769 61.4011 56.1722 62.855 56.1722C63.5272 56.1722 63.6949 56.7716 63.5557 58.6721Z" fill="url(#paint2_radial_49_57)"/>
<path d="M89.5075 62.667H80.807V61.6622C81.0372 61.6438 81.272 61.6209 81.5114 61.5933C81.7507 61.5566 81.9533 61.5107 82.119 61.4557C82.4136 61.3547 82.6162 61.1988 82.7267 60.9877C82.8464 60.7766 82.9062 60.5014 82.9062 60.1618V50.334H79.8127C79.7667 52.6281 79.5641 54.5872 79.2051 56.2114C78.846 57.8356 78.3949 59.1478 77.8517 60.1481C77.2992 61.1575 76.7008 61.9007 76.0563 62.3779C75.4119 62.8551 74.7628 63.0937 74.1091 63.0937C73.6119 63.0937 73.193 63.0111 72.8524 62.8459C72.5209 62.6899 72.2539 62.488 72.0514 62.2403C71.8396 61.9925 71.6923 61.7172 71.6094 61.4144C71.5266 61.1116 71.4852 60.8409 71.4852 60.6023C71.4852 59.9232 71.6785 59.3818 72.0652 58.9781C72.4611 58.5651 72.9813 58.3587 73.6257 58.3587C74.1689 58.3587 74.6431 58.5055 75.0482 58.7991C75.4533 59.0836 75.84 59.4323 76.2082 59.8452C76.7699 59.001 77.2394 57.8677 77.6169 56.4454C78.0036 55.0139 78.1969 53.5273 78.1969 51.9857C78.1969 51.5728 78.1279 51.2516 77.9898 51.0222C77.8517 50.7928 77.6675 50.6093 77.4374 50.4716C77.1796 50.3248 76.8849 50.2193 76.5535 50.155C76.2221 50.0816 75.932 50.0357 75.6835 50.0174V49.0126H89.5075V50.0174C89.2313 50.0357 89.0011 50.0587 88.817 50.0862C88.6328 50.1137 88.4303 50.1596 88.2093 50.2239C87.9423 50.3064 87.7444 50.4579 87.6155 50.6781C87.4958 50.8891 87.4359 51.169 87.4359 51.5177V60.1618C87.4359 60.4922 87.4912 60.7721 87.6017 61.0015C87.7214 61.2217 87.9239 61.3731 88.2093 61.4557C88.4303 61.5199 88.6236 61.5658 88.7893 61.5933C88.9643 61.6209 89.2037 61.6438 89.5075 61.6622V62.667Z" fill="url(#paint3_radial_49_57)"/>
<path d="M101.757 58.4C101.757 57.6292 101.527 56.9639 101.067 56.4041C100.615 55.8444 99.9756 55.5645 99.147 55.5645C98.8248 55.5645 98.5532 55.5782 98.3322 55.6058C98.1204 55.6333 97.9547 55.6517 97.835 55.6608V60.4922C97.835 60.8776 97.9455 61.185 98.1665 61.4144C98.3966 61.6346 98.7971 61.7447 99.368 61.7447C99.8375 61.7447 100.229 61.6484 100.542 61.4557C100.864 61.2538 101.113 60.9877 101.288 60.6573C101.472 60.3086 101.596 59.9508 101.66 59.5837C101.725 59.2075 101.757 58.8129 101.757 58.4ZM106.632 58.4275C106.632 59.1983 106.48 59.8682 106.176 60.4371C105.882 60.9969 105.426 61.4511 104.809 61.7998C104.229 62.121 103.506 62.3641 102.641 62.5293C101.785 62.6853 100.744 62.7633 99.5199 62.7633C97.2182 62.7633 95.5287 62.745 94.4515 62.7083C93.3743 62.6807 92.3017 62.667 91.2337 62.667V61.6622C91.4639 61.6438 91.6941 61.6209 91.9243 61.5933C92.1636 61.5566 92.3662 61.5107 92.5319 61.4557C92.8265 61.3547 93.0291 61.1988 93.1396 60.9877C93.25 60.7766 93.3053 60.5014 93.3053 60.1618V51.5177C93.3053 51.1965 93.2454 50.9258 93.1257 50.7056C93.0153 50.4762 92.8173 50.3156 92.5319 50.2239C92.2925 50.1504 92.0716 50.1046 91.869 50.0862C91.6665 50.0587 91.4547 50.0357 91.2337 50.0174V49.0126H99.9204V50.0174C99.6442 50.0357 99.4094 50.0587 99.216 50.0862C99.0319 50.1137 98.8294 50.1596 98.6084 50.2239C98.323 50.3064 98.1204 50.4716 98.0007 50.7194C97.8903 50.958 97.835 51.2241 97.835 51.5177V54.4358C98.2493 54.4266 98.59 54.4129 98.857 54.3945C99.1332 54.367 99.5521 54.3532 100.114 54.3532C101.062 54.3532 101.927 54.4266 102.71 54.5734C103.502 54.7111 104.188 54.9405 104.768 55.2617C105.357 55.5828 105.813 55.9958 106.135 56.5005C106.466 57.0052 106.632 57.6475 106.632 58.4275Z" fill="url(#paint4_radial_49_57)"/>
<path d="M118.122 60.1618C118.352 59.6112 118.523 58.9689 118.633 58.2348C118.744 57.4915 118.799 56.684 118.799 55.8122C118.799 55.124 118.753 54.4083 118.661 53.665C118.569 52.9217 118.426 52.3023 118.233 51.8068C118.021 51.2745 117.736 50.8478 117.376 50.5267C117.027 50.1963 116.594 50.0312 116.078 50.0312C115.517 50.0312 115.052 50.2055 114.683 50.5542C114.315 50.9029 114.016 51.3571 113.786 51.9169C113.574 52.4124 113.418 53.0089 113.316 53.7063C113.215 54.3945 113.164 55.0965 113.164 55.8122C113.164 56.8308 113.22 57.7163 113.33 58.4688C113.45 59.2121 113.611 59.8269 113.813 60.3132C114.044 60.8546 114.338 61.2676 114.697 61.552C115.056 61.8365 115.489 61.9787 115.995 61.9787C116.465 61.9787 116.879 61.8227 117.238 61.5107C117.597 61.1896 117.892 60.7399 118.122 60.1618ZM109.712 52.8804L109.85 52.9079C110.43 51.7242 111.263 50.7653 112.35 50.0312C113.445 49.297 114.739 48.93 116.23 48.93C117.51 48.93 118.624 49.0952 119.572 49.4255C120.521 49.7559 121.317 50.2284 121.961 50.8433C122.597 51.4489 123.066 52.1692 123.37 53.0043C123.683 53.8393 123.84 54.7707 123.84 55.7985C123.84 56.7803 123.66 57.7209 123.301 58.6202C122.942 59.5103 122.422 60.2811 121.74 60.9326C121.032 61.6209 120.175 62.1577 119.172 62.5431C118.168 62.9193 117.036 63.1074 115.774 63.1074C114.789 63.1074 113.836 62.9468 112.916 62.6257C111.995 62.2953 111.176 61.7677 110.458 61.0428C109.758 60.3362 109.201 59.4323 108.787 58.3311C108.381 57.2208 108.179 55.9132 108.179 54.4083C108.179 52.9676 108.299 51.7242 108.538 50.6781C108.777 49.632 109.118 48.5721 109.56 47.4985C110.057 46.2872 110.853 45.2365 111.949 44.3464C113.054 43.4563 114.357 42.9745 115.857 42.9011C116.603 42.8644 117.519 42.8231 118.606 42.7773C119.692 42.7222 120.484 42.6763 120.981 42.6396C121.441 42.6029 121.81 42.5203 122.086 42.3919C122.371 42.2542 122.68 41.9697 123.011 41.5385L123.853 42.1991C123.55 42.5937 123.264 42.9975 122.997 43.4104C122.739 43.8142 122.463 44.1904 122.169 44.5391C121.984 44.7593 121.787 44.9979 121.575 45.2549C121.363 45.5026 121.151 45.6999 120.94 45.8467C120.709 46.0027 120.452 46.1312 120.166 46.2321C119.881 46.3331 119.494 46.4019 119.006 46.4386C118.601 46.4661 118.085 46.5074 117.459 46.5625C116.842 46.6084 116.235 46.6451 115.636 46.6726C114.835 46.7093 114.154 46.824 113.592 47.0167C113.031 47.2094 112.557 47.4388 112.17 47.7049C111.793 47.9619 111.489 48.2509 111.259 48.5721C111.028 48.8933 110.844 49.1869 110.706 49.453C110.439 49.9853 110.218 50.5909 110.043 51.27C109.878 51.9398 109.767 52.4766 109.712 52.8804Z" fill="url(#paint5_radial_49_57)"/>
<path d="M34.0175 37.8991L32.086 35.5385L31.0887 38.3815C29.4895 42.9391 26.5158 45.7821 24.4135 48.3409C22.2124 51.0289 20.3077 53.3551 20.3077 56.56C20.3077 62.7803 25.5904 67.8461 32.077 67.8461C38.5635 67.8461 43.8462 62.7803 43.8462 56.56C43.8552 50.8308 35.0777 39.2172 34.0175 37.8991Z" fill="url(#paint6_radial_49_57)"/>
<path fill-rule="evenodd" clip-rule="evenodd" d="M138.41 55.0535L138.413 55.0532C138.864 55.0017 138.681 53.5436 138.486 52.571C138.458 52.4575 138.433 52.3409 138.41 52.222C137.836 49.177 135.933 48.1619 131.408 48.4874C128.479 48.6983 127.512 49.0297 126.613 50.1334C125.355 51.6796 125.423 52.4388 126.907 53.369C128.411 54.3123 130.05 53.0459 129.836 51.107C129.691 49.8002 129.901 49.5537 131.159 49.5537C132.74 49.5537 133.891 51.0161 133.891 53.0263C133.891 53.9256 133.354 54.2915 131.6 54.5861C130.341 54.7976 128.459 55.4855 127.419 56.1146C125.899 57.0341 125.527 57.6501 125.527 59.2539C125.527 62.8115 129.057 64.3215 132.815 62.3725C134.202 61.6526 134.525 61.6531 135.128 62.3761C135.925 63.3306 139.712 63.4881 141.06 62.622C141.925 62.066 141.804 61.984 139.865 61.8112C139.254 61.7565 138.91 60.9273 138.786 59.2064C138.603 56.7014 138.584 56.6818 136.282 56.6818C134.034 56.6818 133.957 56.7496 133.777 58.9094C133.617 60.8405 133.393 61.1369 132.099 61.1369C130.857 61.1369 130.574 60.8186 130.421 59.2432C130.167 56.6379 131.92 55.6221 137.495 55.1416C137.808 55.1146 138.113 55.0853 138.41 55.0535Z" fill="url(#paint7_radial_49_57)"/>
<path d="M37.948 52.253L36.6981 50.7692L36.0528 52.5563C35.0181 55.421 33.0939 57.2081 31.7336 58.8165C30.3093 60.5061 29.0769 61.9682 29.0769 63.9828C29.0769 67.8927 32.4951 71.0769 36.6923 71.0769C40.8895 71.0769 44.3077 67.8927 44.3077 63.9828C44.3135 60.3815 38.6339 53.0816 37.948 52.253Z" fill="url(#paint8_radial_49_57)"/>
<defs>
<radialGradient id="paint0_radial_49_57" cx="0" cy="0" r="1" gradientUnits="userSpaceOnUse" gradientTransform="translate(35.1968 41.0002) rotate(77.0164) scale(41.9803 56.5097)">
<stop stop-color="#007D38"/>
<stop offset="1" stop-color="#79C825"/>
</radialGradient>
<radialGradient id="paint1_radial_49_57" cx="0" cy="0" r="1" gradientUnits="userSpaceOnUse" gradientTransform="translate(140.714 46.967) rotate(-113.5) scale(14.0657 18.9338)">
<stop stop-color="#007D38"/>
<stop offset="1" stop-color="#79C825"/>
</radialGradient>
<radialGradient id="paint2_radial_49_57" cx="0" cy="0" r="1" gradientUnits="userSpaceOnUse" gradientTransform="translate(83.9792 48.3908) rotate(89.2592) scale(19.457 76.9817)">
<stop stop-color="#2DD9FF"/>
<stop offset="1" stop-color="#157CB7"/>
</radialGradient>
<radialGradient id="paint3_radial_49_57" cx="0" cy="0" r="1" gradientUnits="userSpaceOnUse" gradientTransform="translate(83.9792 48.3908) rotate(89.2592) scale(19.457 76.9817)">
<stop stop-color="#2DD9FF"/>
<stop offset="1" stop-color="#157CB7"/>
</radialGradient>
<radialGradient id="paint4_radial_49_57" cx="0" cy="0" r="1" gradientUnits="userSpaceOnUse" gradientTransform="translate(83.9792 48.3908) rotate(89.2592) scale(19.457 76.9817)">
<stop stop-color="#2DD9FF"/>
<stop offset="1" stop-color="#157CB7"/>
</radialGradient>
<radialGradient id="paint5_radial_49_57" cx="0" cy="0" r="1" gradientUnits="userSpaceOnUse" gradientTransform="translate(83.9792 48.3908) rotate(89.2592) scale(19.457 76.9817)">
<stop stop-color="#2DD9FF"/>
<stop offset="1" stop-color="#157CB7"/>
</radialGradient>
<radialGradient id="paint6_radial_49_57" cx="0" cy="0" r="1" gradientUnits="userSpaceOnUse" gradientTransform="translate(83.9792 48.3908) rotate(89.2592) scale(19.457 76.9817)">
<stop stop-color="#2DD9FF"/>
<stop offset="1" stop-color="#157CB7"/>
</radialGradient>
<radialGradient id="paint7_radial_49_57" cx="0" cy="0" r="1" gradientUnits="userSpaceOnUse" gradientTransform="translate(83.9792 48.3908) rotate(89.2592) scale(19.457 76.9817)">
<stop stop-color="#2DD9FF"/>
<stop offset="1" stop-color="#157CB7"/>
</radialGradient>
<radialGradient id="paint8_radial_49_57" cx="0" cy="0" r="1" gradientUnits="userSpaceOnUse" gradientTransform="translate(36.6623 58.8478) rotate(89.4271) scale(26.0765 19.5574)">
<stop stop-color="#2DD9FF"/>
<stop offset="1" stop-color="#157CB7"/>
</radialGradient>
</defs>
</svg>
