<?xml version="1.0" encoding="iso-8859-1"?>
<!-- Uploaded to: SVG Repo, www.svgrepo.com, Generator: SVG Repo Mixer Tools -->
<svg fill="#000000" height="800px" width="800px" version="1.1" id="Capa_1" xmlns="http://www.w3.org/2000/svg" xmlns:xlink="http://www.w3.org/1999/xlink" 
	 viewBox="0 0 511 511" xml:space="preserve">
<g>
	<polygon points="207,88.147 304,102.005 304,119.5 319,119.5 319,88.995 192,70.853 192,119.5 207,119.5 	"/>
	<path d="M430.629,260.203L319,228.309v-34.343h-0.168c10.375-13.726,16.168-30.621,16.168-48v-7.36l16-16V47.5
		C351,21.309,329.691,0,303.5,0h-96C181.309,0,160,21.309,160,47.5v75.106l16,16v4.894c0,18.952,6.286,36.505,16.855,50.466H192
		v34.343L80.371,260.203L63.478,511h384.044L430.629,260.203z M431.478,496H383V332.466l34.375-45.833L431.478,496z M207,208.46
		c12.1,9.644,26.967,15.783,43.223,16.836c1.792,0.116,3.572,0.173,5.348,0.173c17.712-0.001,34.529-5.742,48.429-16.498v20.643
		l-48.5,27.714L207,229.614V208.46z M268.286,401.68l-24.718-24.718l0.849-23.553l23.152,28.413L268.286,401.68z M241.438,436.044
		l29.141,29.141l0.703,19.49l-30.498-30.498L241.438,436.044z M242.176,415.57l0.654-18.133l26.251,26.251l0.703,19.49
		L242.176,415.57z M245.314,330.762l-0.082,0.067l0.661-18.329l19.892,19.892l0.887,24.582L245.314,330.762z M264.215,288.866
		l0.777,21.519l-18.359-18.359l0.112-3.108l8.756-10.945L264.215,288.866z M224.266,496H143V319.192l-42.195-49.227l64.982-18.566
		l57.971,66.252l7.268-9.085L224.266,496z M240.045,474.652L261.394,496h-22.118L240.045,474.652z M279.934,308.515l7.309,9.136
		l57.971-66.252l65.749,18.785L368,327.466V496h-81.3L279.934,308.515z M329.267,246.843l-41.509,47.439l-20.924-26.154
		l45.644-26.082L329.267,246.843z M175,116.394V47.5c0-17.92,14.58-32.5,32.5-32.5h96c17.92,0,32.5,14.58,32.5,32.5v68.894l-16,16
		v13.573c0,18.022-7.245,34.738-20.4,47.069c-13.144,12.321-30.334,18.459-48.408,17.292C217.439,208.142,191,178.788,191,143.5
		v-11.106L175,116.394z M198.522,242.046l45.644,26.082l-20.924,26.154l-41.509-47.439L198.522,242.046z M93.75,284.782L128,324.741
		V496H79.522L93.75,284.782z"/>
</g>
</svg>